# xmcd
#
# Track frame offsets: 
#        150
#        13126
#        27807
#        41775
#        56012
#        70879
#        85833
#        101062
#        113849
#        127468
#        139836
#        152831
#
# Disc length: 2254 seconds
#
# Revision: 0
# Processed by: cddbd v1.5.2PL0 Copyright (c) Steve Scherf et al.
# Submitted via: ExactAudioCopyFreeDBPlugin 1.0
#
DISCID=ac08cc0c
DTITLE=Amber Lawrence - Happy Ever After
DYEAR=2016
DGENRE=Country
TTITLE0=Happy Ever After
TTITLE1=Un-Complicate Me
TTITLE2=Cheers To The Girls
TTITLE3=Champion
TTITLE4=Drive By Breakup
TTITLE5=The Lucky One
TTITLE6=Sometimes You Wanna Feel Good
TTITLE7=Cash
TTITLE8=Don't Go Back
TTITLE9=Emergency Landing
TTITLE10=Alright Alright Alright
TTITLE11=Get Me Out Of This
EXTD=
EXTT0=
EXTT1=
EXTT2=
EXTT3=
EXTT4=
EXTT5=
EXTT6=
EXTT7=
EXTT8=
EXTT9=
EXTT10=
EXTT11=
PLAYORDER=
